<svg width="36" height="36" viewBox="0 0 36 36" fill="none" xmlns="http://www.w3.org/2000/svg">
<g clip-path="url(#clip0_2_8)">
<path d="M17.9272 35.8C27.8282 35.8 35.8545 27.7859 35.8545 17.9C35.8545 8.01411 27.8282 1.14441e-05 17.9272 1.14441e-05C8.0263 1.14441e-05 -1.52588e-05 8.01411 -1.52588e-05 17.9C-1.52588e-05 27.7859 8.0263 35.8 17.9272 35.8Z" fill="#E0E0E0"/>
<path d="M17.9273 35.2559C27.6777 35.2559 35.582 27.3636 35.582 17.628C35.582 7.89231 27.6777 7.62939e-06 17.9273 7.62939e-06C8.17678 7.62939e-06 0.272446 7.89231 0.272446 17.628C0.272446 27.3636 8.17678 35.2559 17.9273 35.2559Z" fill="white"/>
<mask id="mask0_2_8" style="mask-type:luminance" maskUnits="userSpaceOnUse" x="6" y="5" width="24" height="25">
<path d="M29.3702 15.5605H18.1997V20.1851H24.6295C24.0301 23.1231 21.5236 24.8097 18.1997 24.8097C14.2764 24.8097 11.116 21.6541 11.116 17.7368C11.116 13.8194 14.2764 10.6638 18.1997 10.6638C19.8889 10.6638 21.4146 11.2623 22.6134 12.2416L26.1008 8.75956C23.9757 6.90971 21.2512 5.76716 18.1997 5.76716C11.5519 5.76716 6.21188 11.0991 6.21188 17.7368C6.21188 24.3745 11.5519 29.7064 18.1997 29.7064C24.1936 29.7064 29.6426 25.3538 29.6426 17.7368C29.6426 17.0295 29.5337 16.2678 29.3702 15.5605Z" fill="white"/>
</mask>
<g mask="url(#mask0_2_8)">
<path d="M5.12208 24.8097V10.6638L14.3854 17.7368L5.12208 24.8097Z" fill="#FBBC05"/>
</g>
<mask id="mask1_2_8" style="mask-type:luminance" maskUnits="userSpaceOnUse" x="6" y="5" width="24" height="25">
<path d="M29.3702 15.5605H18.1997V20.1851H24.6295C24.0301 23.1231 21.5236 24.8097 18.1997 24.8097C14.2764 24.8097 11.116 21.6541 11.116 17.7368C11.116 13.8194 14.2764 10.6638 18.1997 10.6638C19.8889 10.6638 21.4146 11.2623 22.6134 12.2416L26.1008 8.75956C23.9757 6.90971 21.2512 5.76716 18.1997 5.76716C11.5519 5.76716 6.21188 11.0991 6.21188 17.7368C6.21188 24.3745 11.5519 29.7064 18.1997 29.7064C24.1936 29.7064 29.6426 25.3538 29.6426 17.7368C29.6426 17.0295 29.5337 16.2678 29.3702 15.5605Z" fill="white"/>
</mask>
<g mask="url(#mask1_2_8)">
<path d="M5.12208 10.6638L14.3854 17.7368L18.1997 14.4179L31.2773 12.296V4.67901H5.12208V10.6638Z" fill="#EA4335"/>
</g>
<mask id="mask2_2_8" style="mask-type:luminance" maskUnits="userSpaceOnUse" x="6" y="5" width="24" height="25">
<path d="M29.3702 15.5605H18.1997V20.1851H24.6295C24.0301 23.1231 21.5236 24.8097 18.1997 24.8097C14.2764 24.8097 11.116 21.6541 11.116 17.7368C11.116 13.8194 14.2764 10.6638 18.1997 10.6638C19.8889 10.6638 21.4146 11.2623 22.6134 12.2416L26.1008 8.75956C23.9757 6.90971 21.2512 5.76716 18.1997 5.76716C11.5519 5.76716 6.21188 11.0991 6.21188 17.7368C6.21188 24.3745 11.5519 29.7064 18.1997 29.7064C24.1936 29.7064 29.6426 25.3538 29.6426 17.7368C29.6426 17.0295 29.5337 16.2678 29.3702 15.5605Z" fill="white"/>
</mask>
<g mask="url(#mask2_2_8)">
<path d="M5.12208 24.8097L21.4691 12.296L25.7738 12.8401L31.2773 4.67901V30.7945H5.12208V24.8097Z" fill="#34A853"/>
</g>
<mask id="mask3_2_8" style="mask-type:luminance" maskUnits="userSpaceOnUse" x="6" y="5" width="24" height="25">
<path d="M29.3702 15.5605H18.1997V20.1851H24.6295C24.0301 23.1231 21.5236 24.8097 18.1997 24.8097C14.2764 24.8097 11.116 21.6541 11.116 17.7368C11.116 13.8194 14.2764 10.6638 18.1997 10.6638C19.8889 10.6638 21.4146 11.2623 22.6134 12.2416L26.1008 8.75956C23.9757 6.90971 21.2512 5.76716 18.1997 5.76716C11.5519 5.76716 6.21188 11.0991 6.21188 17.7368C6.21188 24.3745 11.5519 29.7064 18.1997 29.7064C24.1936 29.7064 29.6426 25.3538 29.6426 17.7368C29.6426 17.0295 29.5337 16.2678 29.3702 15.5605Z" fill="white"/>
</mask>
<g mask="url(#mask3_2_8)">
<path d="M31.2773 30.7945L14.3854 17.7368L12.2058 16.1045L31.2773 10.6638V30.7945Z" fill="#4285F4"/>
</g>
</g>
<defs>
<clipPath id="clip0_2_8">
<rect width="35.8" height="35.8" fill="white"/>
</clipPath>
</defs>
</svg>
